/* XPM */
static char * background_xpm[] = {
"64 64 6 1",
" 	c #FFFFFF",
".	c #502B10",
"+	c #5F3313",
"@	c #673714",
"#	c #592F11",
"$	c #643514",
"                                                                ",
"                                                                ",
"                                                                ",
"                                                                ",
"                                                                ",
"                                                                ",
"                                                                ",
"                                                                ",
"        ................................................        ",
"        ................................................        ",
"        .......++......@@......++......@@......++.......        ",
"        ......++++....@@@@....++++....@@@@....++++......        ",
"        ......++++#..#@@@@#..#++++#..#@@@@#..#++++......        ",
"        .....#++++..##@@@@..##++++..##@@@@..##++++......        ",
"        ...$$##++..++##@@..$$##++..++##@@..$$##++..++...        ",
"        ..$$$$###.++++##..$$$$###.++++##..$$$$###.++++..        ",
"        .#$$$$####++++#...$$$$####++++#...$$$$####++++#.        ",
"        .#$$$$.###++++....$$$$.###++++....$$$$.###++++#.        ",
"        .##$$..@@##++..++..$$..@@##++..++..$$..@@##++##.        ",
"        ..##..@@@@##..++++.##.@@@@##..++++.##.@@@@####..        ",
"        .....#@@@@####++++####@@@@####++++####@@@@###...        ",
"        ....##@@@@####++++.###@@@@####++++.###@@@@##....        ",
"        ...$$##@@##$$##++..$$##@@##$$##++..$$##@@##$$...        ",
"        ..$$$$####$$$$###.$$$$####$$$$###.$$$$####$$$$..        ",
"        .#$$$$####$$$$.###$$$$####$$$$.###$$$$####$$$$..        ",
"        .#$$$$.###$$$$..##$$$$.###$$$$..##$$$$.###$$$$..        ",
"        .##$$..++##$$..@@##$$..++##$$..@@##$$..++##$$...        ",
"        ..##..++++##..@@@@##..++++##..@@@@##..++++##....        ",
"        .....#++++#..#@@@@#..#++++#..#@@@@#..#++++#.....        ",
"        ....##++++..##@@@@..##++++..##@@@@..##++++..#...        ",
"        ...$$##++..++##@@..$$##++..++##@@..$$##++..++...        ",
"        ..$$$$###.++++##..$$$$###.++++##..$$$$###.++++..        ",
"        .#$$$$####++++#...$$$$####++++#...$$$$####++++#.        ",
"        .#$$$$.###++++....$$$$.###++++....$$$$.###++++#.        ",
"        .##$$..@@##++..++..$$..@@##++..++..$$..@@##++##.        ",
"        ..##..@@@@##..++++.##.@@@@##..++++.##.@@@@####..        ",
"        .....#@@@@####++++####@@@@####++++####@@@@###...        ",
"        ....##@@@@####++++.###@@@@####++++.###@@@@##....        ",
"        ...$$##@@##$$##++..$$##@@##$$##++..$$##@@##$$...        ",
"        ..$$$$####$$$$###.$$$$####$$$$###.$$$$####$$$$..        ",
"        .#$$$$####$$$$.###$$$$####$$$$.###$$$$####$$$$..        ",
"        .#$$$$.###$$$$..##$$$$.###$$$$..##$$$$.###$$$$..        ",
"        .##$$..++##$$..@@##$$..++##$$..@@##$$..++##$$...        ",
"        ..##..++++##..@@@@##..++++##..@@@@##..++++##....        ",
"        .....#++++#..#@@@@#..#++++#..#@@@@#..#++++#.....        ",
"        ....##++++..##@@@@..##++++..##@@@@..##++++..#...        ",
"        ...$$##++..++##@@..$$##++..++##@@..$$##++..++...        ",
"        ..$$$$###.++++##..$$$$###.++++##..$$$$###.++++..        ",
"        .#$$$$####++++#...$$$$####++++#...$$$$####++++#.        ",
"        .#$$$$.###++++....$$$$.###++++....$$$$.###++++#.        ",
"        .##$$..@@##++..++..$$..@@##++..++..$$..@@##++##.        ",
"        ..##..@@@@##..++++.##.@@@@##..++++.##.@@@@####..        ",
"        .....#@@@@####++++####@@@@####++++####@@@@##....        ",
"        ......@@@@..##++++..##@@@@..##++++..##@@@@......        ",
"        .......@@....##++....##@@....##++....##@@.......        ",
"                                                                ",
"                                                                ",
"                                                                ",
"                                                                ",
"                                                                ",
"                                                                ",
"                                                                ",
"                                                                ",
"                                                                "};
