/* XPM */
static char * collectible_xpm[] = {
"64 64 11 1",
" 	c #FFFFFF",
".	c #0A0C13",
"+	c #68485A",
"@	c #43333C",
"#	c #242531",
"$	c #373749",
"%	c #444A60",
"&	c #AB8D76",
"*	c #CFB19B",
"=	c #EA4545",
"-	c #15171F",
"                                                                ",
"                                                                ",
"                                                                ",
"                                                                ",
"                                                                ",
"                                                                ",
"                                                                ",
"                                                                ",
"                                                                ",
"                                                                ",
"                                                                ",
"                                                                ",
"                                                                ",
"                                                                ",
"                                                                ",
"                                                                ",
"                                                                ",
"                                                                ",
"                                                                ",
"                                                                ",
"                                                                ",
"                            ..                                  ",
"                        .. ..+.. ...                            ",
"                        .+..@++...+...                          ",
"                    .....++@@++@@++.+.                          ",
"                    .++.@++@@++@@++++....                       ",
"                    ..++@+++@++@++@++@.@.                       ",
"                     .@+++++@#$$$$#@+@@@.                       ",
"                    .@@+++@#$%%%%%%$#@@@..                      ",
"                    ..@@++#$%%%%%%%%%$@@@.                      ",
"                     ...@#$$%%%%%%%%%%$@@..                     ",
"                     ....$$$%%%%%%%%%%$$@@.                     ",
"                    ......$$$%%%%%%%%$$$#@.                     ",
"                    ##$$$.$$$$%%%%%%$$$$$..                     ",
"                    ###&+$$$$$$$$$$$$$$$$..                     ",
"              ..... ....+$$$$$$$$$$$$$$$$#.                     ",
"              .&.*...=.$$$$$$$$$$$$$$$$$$#..                    ",
"             ..&.*..#$$$$$$$$$$$$$$$$$$$$#-......               ",
"             .++.**#$$$$$$$$$$$$$$$$%%%%#--.-###..              ",
"             ..+.*&&$$$%%$$$$$$$#$$%%%%%%-----.##.              ",
"             ..+..&&&$%%%$$$$$$$#$$%%%%%%---....#..             ",
"             .......##%%$$$$$$####$%%%%%%--..  .@..             ",
"                ......--$$$$$$...-#$%%%%$.     .@@.             ",
"                  .....-#$$$$......#$$###       @@.             ",
"                       -####-....   .####-       @.             ",
"                       ####- ....  ...####       ..             ",
"                      -####   .... ....###                      ",
"                                                                ",
"                                                                ",
"                                                                ",
"                                                                ",
"                                                                ",
"                                                                ",
"                                                                ",
"                                                                ",
"                                                                ",
"                                                                ",
"                                                                ",
"                                                                ",
"                                                                ",
"                                                                ",
"                                                                ",
"                                                                ",
"                                                                "};
