/* XPM */
static char * exit_xpm[] = {
"64 64 11 1",
" 	c #FFFFFF",
".	c #8A8A8F",
"+	c #DBDBE2",
"@	c #101112",
"#	c #53535A",
"$	c #A86117",
"%	c #5D3A17",
"&	c #EEAD3B",
"*	c #C88427",
"=	c #202324",
"-	c #17191A",
"                                                                ",
"                                                                ",
"                                                                ",
"                                                                ",
"                                                                ",
"                                                                ",
"                                                                ",
"                                                                ",
"                                                                ",
"                                         ...                    ",
"                                       ......                   ",
"                                      ........                  ",
"                                     .........                  ",
"                                    ..........                  ",
"                                   ...........                  ",
"                                  ...........                   ",
"                                 ...........  +++               ",
"                                ..........  +++++++             ",
"                               ........   +++++++++             ",
"                  @@  @@      .......   ++++++++++++            ",
"                   @@  @@### ......   ++++++++++++++            ",
"                    @ #+@++##....   ++++++++++++++++            ",
"                    @@++@@#++###   ++++++++++++++++             ",
"                    #@$$$@%++++# +++++++++++++++++              ",
"                    #@&&&@$%++.++++++++++++++                   ",
"                   #$&&&&&*%+++#+++++                           ",
"                   #&&&&&*$%+++#                                ",
"                   ==****==%.++.%                               ",
"                   ===**===%++..&%                              ",
"                   @==**==%..++.&%                              ",
"                   =%%$$%%....##==%                             ",
"                   =###########===%                             ",
"                    =####..=##====&%                            ",
"                     =##=#..=====$&%                            ",
"                      ====@==@@=$&&%                            ",
"                      @@@@@@@@$&&&%                             ",
"                      --$$$&&&&&&$%                             ",
"                       -%$$$$&&&&%                              ",
"                        -=$$$&&&=%                              ",
"                         -======%                               ",
"                        #.+===%                                 ",
"                        #++--                                   ",
"                        #+#                                     ",
"                         ##                                     ",
"                                                                ",
"                                                                ",
"                                                                ",
"                                                                ",
"                                                                ",
"                                                                ",
"                                                                ",
"                                                                ",
"                                                                ",
"                                                                ",
"                                                                ",
"                                                                ",
"                                                                ",
"                                                                ",
"                                                                ",
"                                                                ",
"                                                                ",
"                                                                ",
"                                                                ",
"                                                                "};
