/* XPM */
static char * player_xpm[] = {
"64 64 25 1",
" 	c #FFFFFF",
".	c #DBDBE2",
"+	c #8A8A8F",
"@	c #B6B6B6",
"#	c #53535A",
"$	c #EFC193",
"%	c #301C19",
"&	c #BC8356",
"*	c #633724",
"=	c #4CB528",
"-	c #524238",
";	c #AB9A6E",
">	c #766A55",
",	c #8F4F34",
"'	c #C8BCB4",
")	c #8B6B1C",
"!	c #673D31",
"~	c #F1C146",
"{	c #5A440D",
"]	c #4B2F25",
"^	c #007DFF",
"/	c #34343A",
"(	c #7F7873",
"_	c #F1F1F1",
":	c #9C604C",
"                                                                ",
"                                                                ",
"                                                                ",
"                                                                ",
"                                                                ",
"                                                                ",
"                                                                ",
"                                                                ",
"                                                                ",
"                                                                ",
"                                    .......+                    ",
"                                   .......++                    ",
"                                  .......++...                  ",
"                                 @......@......                 ",
"                                #@@@.........@++                ",
"                                ##@@@@........@+                ",
"                                 #@@@@@........+                ",
"                                 #@@@++$$$$....+                ",
"                                %++$++$$$$$$+#.+                ",
"                                %++$++&**$$*+###                ",
"                                %+%+++$.*$$.##                  ",
"                                %%%%%$$.=$$.#                   ",
"                                  %%%&$$$$$$#                   ",
"                                 --%&&&$$$$                     ",
"                                --;;&&**                        ",
"                               --;;;;$-                         ",
"                              --;;;;;;$-                        ",
"                             %-;;;;;;;;-                        ",
"                             >;;;;>;;;;-                        ",
"                           -->>;;;->;;-                         ",
"                           -;;;>;->>--%%                        ",
"                          ,&$;;;-'%%%%%%                        ",
"                         ,$$$$&--'%%%%%%                        ",
"                    ))) ,$$$$&!!!'%%%%%                         ",
"                    )~~,$$$&&->>>>>%                            ",
"                    )~,$$$&%-->>>>>%                            ",
"                     ),$$$&%)))>>>>-                            ",
"                      &$${{{~~)-----                            ",
"                      &&{{)~~))!!!!]                            ",
"                        {)^^)/!!!!!]                            ",
"                       ))~^^++/!!!!]                            ",
"                       )~~)#@++/!!!%                            ",
"                       )~)/##@++/!!%                            ",
"                      ])))]/##@++/]%                            ",
"                      !!(]]]/##@++/%                            ",
"                      !!(%%%%/##@++/                            ",
"                      !!%     /##@+@#                           ",
"                      !%      ]/##@@@#                          ",
"                      %       ]!/##@@@#                         ",
"                              ]!!/##@@@#                        ",
"                              ]!!%/##@@_+                       ",
"                              %!!% /##___+                      ",
"                              %!!%  /##___+                     ",
"                              %!''%  /##___+                    ",
"                              !::::%  /##___+                   ",
"                              !:::::%  /##__+                   ",
"                                        /##__+                  ",
"                                         //#_+                  ",
"                                           //+                  ",
"                                                                ",
"                                                                ",
"                                                                ",
"                                                                ",
"                                                                "};
