/* XPM */
static char * background_xpm[] = {
"64 64 68 1",
" 	c #502B10",
".	c #542D11",
"+	c #562E11",
"@	c #552E11",
"#	c #512B10",
"$	c #512C10",
"%	c #582F11",
"&	c #5A3012",
"*	c #522C10",
"=	c #532C11",
"-	c #5F3313",
";	c #5D3213",
">	c #552D11",
",	c #572F11",
"'	c #643513",
")	c #673714",
"!	c #603313",
"~	c #5E3313",
"{	c #5B3112",
"]	c #663714",
"^	c #613413",
"/	c #582F12",
"(	c #5E3213",
"_	c #542D10",
":	c #532C10",
"<	c #5D3112",
"[	c #653614",
"}	c #592F11",
"|	c #5C3112",
"1	c #572E11",
"2	c #5F3212",
"3	c #5D3212",
"4	c #5B3012",
"5	c #5E3212",
"6	c #5A3011",
"7	c #5B3011",
"8	c #633513",
"9	c #5A2F11",
"0	c #5F3213",
"a	c #623413",
"b	c #623414",
"c	c #613313",
"d	c #633413",
"e	c #5A3112",
"f	c #633514",
"g	c #643514",
"h	c #633414",
"i	c #5C3012",
"j	c #532D11",
"k	c #4F2B10",
"l	c #582E11",
"m	c #562D11",
"n	c #592F12",
"o	c #5D3113",
"p	c #532D10",
"q	c #653514",
"r	c #5F3312",
"s	c #623513",
"t	c #683714",
"u	c #663614",
"v	c #603312",
"w	c #653613",
"x	c #5E3112",
"y	c #593012",
"z	c #552D10",
"A	c #643614",
"B	c #593011",
"C	c #643613",
"                                                                ",
"                                                                ",
"         .+@#      $%&+       *++*       +&%$      #@+.         ",
"        =&-;>#    $,')!.#    $,~~,$    #.!)',$    #>;-&=        ",
"       *{~--;@    %'))]^.   #/(--(/#   .^]))'%    @;--~{*       ",
"       =;----&_  :<))))[}* #>|----|># *}[))))<:  :&----;=       ",
"      #@;----&: :12))))[}*#_%3----|>#*>4[))))<: :1|----;=       ",
"   #=.>}3---;@#.}}5[))]^.*+6}|---(/$*1}78]))'%#>}94(--~{*$=*    ",
"   .0a(963-;>#@;(49<[)!.*{bc49|-~,$={(|94d)',$,ca<}4(-e=$/;{=   ",
"  >(fgh066|6*+|--(465|+*{bggci9{4.j&~-~|9<3%*/!gga<94|1*/;-~&.  ",
" *&ggggb4}}%>{----3}+*k.^gggg<}}}>%----(61: #;gggg!}}}1+;----%* ",
" ><ggggb6%}}}<----|1$  .^gggg<l}}}4----(}:  #;gggg!%}}}6(----{> ",
" m<fgggc>+9}}<----&*## jcggghn_}}}4----3.## #<ggggop%9}6(----{m ",
" +75fq!,${ac663--&j$/&+$,!qb&*1aa|}|--|@$+&/*>oggo.:ra2}4(--|6+ ",
" _1600/*%stuv76|&j*,(!|@$&c5:@-))a|9|{+$@|!(,*+!!+:|[t'56{3|91_ ",
"  :1l_ @8)))]5}%:$1~---3.+9%_-))))a9}>$.3---~1_}}_&u)))w7}}}l:  ",
"  #$$#:6[))))2}}l14----(}%}}%a))))a}}%1}(----&l}}l5))))[4}}l:   ",
"     :14[))))2}}}}{----;+1}}9a))))a}}}}6(----%>}}}2))))[4}1:    ",
"   $1|i6c[)]d|6<<663--;/*%x<92'))'29<<i9|~-~&j><<6|d])[c6i|1#   ",
"  $+^gc46c[8465ff5663~y$.(gb|95ww59|bgc49|~|j*&ff5648[c64cg^+$  ",
"  1^gggc76i790fggf0}66+.0fggb<9779<bgggc6}6%*4bggf097i67cggg^1  ",
" :|ggggh4}}}}!gggg(>%}1%bgggg<}}}}<gggga11}%10gggg!}}}}4bgggg/  ",
" mxggggb%1}}}!gggg;$zl}4hgggg|1}}}<gggg^.:1}}!gggg01%}}4bgggg/  ",
" m<bggf0.+66}0fggb4$.}67cggg^1_66}<bggf0j*,790fggb4*%6}7cggg^1  ",
" m9|bg(.$y~3665ff&*.^[c64cg^+$+((49|bg(.*3[8465ff&*j|~|94cg^+$  ",
" *m9<&>$/;--367<n*@!])[c6i|1$+|--(49<&>*3[t]d|7<n=j&~-~|9i|1$   ",
"  *m>*#@;----{lz#*|))))[41: :{----3}+* 1A))))2lz#*%----(61:     ",
"     #_9(----4z#*+2))))[6: :%3----|1$#_7[))))5z#$+{----(}:#$    ",
"    #>%6(---~1#*1%5])))8@ _%}<----&*#>%7w)))u&#*1}{----3.#p+$   ",
"   *{-<}4(-(,*j&|67vut8%*/00663--&j$/|{65't[|:>;!i9|--|@$+{{*   ",
"  =&bqa<9{3{*j&--366c^y*,!qf566<|>*,(-(4}2^3:>ogg!i9|3%$@|-(,*  ",
" #nhggga7}}%:&----<}%_ .cgggf<}}}_1~---(6%>##<gggg!}}}+.3---~1# ",
" z<ggggb7}}}%|----3%:  .^gggg<}}}%&----(9_# #;gggg!}}}%}(----4z ",
" mxggggb11}}}3----{:  k.^gggg&>}}}{----;@#  #;gggg(>l}}6(----|+ ",
" +|cggb{*}2594(--|+$@+j*{bgf(.@55763--;/$j+@$/!gg!/*|2|9|~--37+ ",
" >%4cb{*.!)[<94(3@#>;-&=*|h!.*|]]v663(/$=&-;>#%aa%$,')d49|(36%> ",
" #_}6+*.^]))[5}}.#@;--~{:14}:3[))uc99+**{~--;@.77.%'))]87}66}_# ",
"  $::#$}[))))2}%+>y----(%l}%1^))))a}}1>1(----&1}}1<))))[4}}%_#  ",
"     *>4[))))2}}}}{----(%l}}9a))))a}}}}6(----&1}}}2))))[4}lz#   ",
"   #j%978]))[5}7794(--~{:1479cu))uc974663---;@.77}5[))]876%.#   ",
"   .0b064d)[<9<aa<}4(-e=*|hc46v]]v64ch0963-;>#%aa<9<[)d460b0.   ",
"  >(fgh06|256<agga<94|1*{bgg!475574!ggh066|6*/!gga<652|60hgf(>  ",
" *&ggggb4}}}}!gggg01%}11bgggg<}}}}<ggggb%l}%>(gggg!}}}}4bgggg/  ",
" ><ggggb6%}}}!gggg;*+}}7bgggg<l}}}<gggg^.z%}}!gggg!%}}}4bgggf/  ",
" m<fgggc>+}}}!gggg<$*1}7aggghn_}}}<fgggc.#>}}!ggggop%}}7agggh/  ",
" +75fq!,$%3|9i!ggo>:3^29<aqb&*>|<665fq!,*y^!64!ggo>*{3{9<aqb&=  ",
" _1600/$@|--|9i!;>:|[t'56<-{*j&--36600/*%8tuv7i!;>*,(-(4}<-{*   ",
"  :1l_#.3----{}1*#&u)))w7%>#*&----<}%_ @8)))]5}1*#1~---(6%>#    ",
"  #$$#:}(----{+$#z5))))[7_#$1|----3%: :6[))))2+$#z4----(9_#     ",
"     :16(----%*#>l2))))A1 *+}3----{: :14[))))|*#zl{----;@#*z#   ",
"   $1|i9|~-~&j*146|d]t[3*>&<94(--|+$@&66c[)]!@*n<763--;/$j%6*   ",
"  $+^gc49|~|j$,~-|948[3*.(gb|94((+#>;-366c[^.*&ff5663~y$=&-;>#  ",
"  1^gggc7}6%*/(---|}71*j0fggb<}66_@;---366}.$4bggf0}66+:{~--;@  ",
" :|ggggh4}}%1|----3%_#k.^gggg<}}}1y----(6>* #;gggg!}}}l,(----&p ",
" mxggggb%1}}}3----|># k.^gggg|1}}}{----(1*k #;gggg01%}}6(----|+ ",
" m<bggf0.1i79|---(/$*=$j0fgg^1.7794(--~{**=*$4bggb4:6i663---(4m ",
" m9|bg(.*5[849|-~,$={;/$.(g^+$BCw5}4(-&=$/;{=*&ff&*>a[c663-(4}m ",
" *m9<&>*3[)]d|9&1*j&~-;/*%54*ys))'294%j$/;-~&j><<>@!u)[c66{4}m* ",
"  *m>*#1A))))2}%_:%----;+1}l>!))))a9}>:+;----%m}}>|))))[i}l+m*  ",
"      :6[))))51l}}4----(}1%}}a))))a%l%}6(----&1l}}5))))[61>#    ",
"       @8)))u&#:l}{----3.#_}}a))))-**+}6(---~1#:l}5])))8@##     ",
"       $}8t[|j  :16|--|@# #_%<a))-+  *+}4(-(,*  :17vut8}$       ",
"         &!3*    _++y&+    #>mB--+k   *m+%&/$    _m15!&         ",
"         ###         #        ###         #         ###         "};
