/* XPM */
static char * exit_xpm[] = {
"64 64 309 2",
"  	c #6A5337",
". 	c #685136",
"+ 	c #685135",
"@ 	c #533016",
"# 	c #4F3D26",
"$ 	c #4C3A25",
"% 	c #4E3C26",
"& 	c #664F33",
"* 	c #493823",
"= 	c #4B3A24",
"- 	c #483722",
"; 	c #675135",
"> 	c #443521",
", 	c #40311E",
"' 	c #41311E",
") 	c #443420",
"! 	c #664E33",
"~ 	c #654E32",
"{ 	c #4A3924",
"] 	c #463622",
"^ 	c #3E301D",
"/ 	c #3E2F1D",
"( 	c #634B30",
"_ 	c #522F15",
": 	c #533117",
"< 	c #654C31",
"[ 	c #644F34",
"} 	c #352818",
"| 	c #2F2415",
"1 	c #2E2314",
"2 	c #2F2315",
"3 	c #302415",
"4 	c #342818",
"5 	c #644E34",
"6 	c #654D31",
"7 	c #502B10",
"8 	c #543218",
"9 	c #654E33",
"0 	c #3B2D1A",
"a 	c #372917",
"b 	c #352817",
"c 	c #2D2214",
"d 	c #2E2214",
"e 	c #2F2314",
"f 	c #312515",
"g 	c #322616",
"h 	c #322515",
"i 	c #352816",
"j 	c #3B2C1A",
"k 	c #644E33",
"l 	c #543219",
"m 	c #362817",
"n 	c #332616",
"o 	c #644D33",
"p 	c #3D2E1B",
"q 	c #392A18",
"r 	c #372918",
"s 	c #382A18",
"t 	c #3C2E1B",
"u 	c #573318",
"v 	c #553116",
"w 	c #433420",
"x 	c #3F301D",
"y 	c #392B18",
"z 	c #3D2F1C",
"A 	c #342716",
"B 	c #433320",
"C 	c #664F34",
"D 	c #5A3418",
"E 	c #522C10",
"F 	c #573217",
"G 	c #352716",
"H 	c #5D3619",
"I 	c #552D11",
"J 	c #583217",
"K 	c #3A2C1A",
"L 	c #3D2F1D",
"M 	c #2E2315",
"N 	c #392B19",
"O 	c #342717",
"P 	c #2C2214",
"Q 	c #562D11",
"R 	c #583317",
"S 	c #322516",
"T 	c #372A19",
"U 	c #382B1A",
"V 	c #2C2113",
"W 	c #382A19",
"X 	c #654F34",
"Y 	c #5C3518",
"Z 	c #562E11",
"` 	c #563216",
" .	c #312516",
"..	c #362918",
"+.	c #382A1A",
"@.	c #362919",
"#.	c #654E34",
"$.	c #593318",
"%.	c #542D10",
"&.	c #302515",
"*.	c #3A2B19",
"=.	c #3D2E1C",
"-.	c #563217",
";.	c #372A18",
">.	c #3A2C19",
",.	c #3E2F1C",
"'.	c #322617",
").	c #3B2C19",
"!.	c #3D2F1B",
"~.	c #543217",
"{.	c #3D2F1F",
"].	c #3B3227",
"^.	c #393026",
"/.	c #362E25",
"(.	c #383026",
"_.	c #382F26",
":.	c #372F25",
"<.	c #352D25",
"[.	c #2C2822",
"}.	c #342D25",
"|.	c #372E25",
"1.	c #3C2E1C",
"2.	c #302414",
"3.	c #342C22",
"4.	c #2D3335",
"5.	c #5A3419",
"6.	c #352C22",
"7.	c #2D3336",
"8.	c #352A1E",
"9.	c #2D2D2C",
"0.	c #2D2E2C",
"a.	c #342A1E",
"b.	c #362816",
"c.	c #312514",
"d.	c #2E2313",
"e.	c #302314",
"f.	c #2D2213",
"g.	c #2F2313",
"h.	c #332717",
"i.	c #2C2114",
"j.	c #342817",
"k.	c #332617",
"l.	c #3B2D1B",
"m.	c #3A2C1B",
"n.	c #382B19",
"o.	c #3C2D1B",
"p.	c #553217",
"q.	c #543016",
"r.	c #512B10",
"s.	c #573216",
"t.	c #302516",
"u.	c #5D3519",
"v.	c #552D10",
"w.	c #5E3619",
"x.	c #5D3518",
"y.	c #40311D",
"z.	c #3E2F1B",
"A.	c #3A2B18",
"B.	c #3D2E1A",
"C.	c #2C2112",
"D.	c #3C2D1A",
"E.	c #3E2E1B",
"F.	c #3A2E20",
"G.	c #36322D",
"H.	c #35312C",
"I.	c #33302B",
"J.	c #34312C",
"K.	c #33302C",
"L.	c #32302B",
"M.	c #2D2C2A",
"N.	c #322F2B",
"O.	c #34302C",
"P.	c #573317",
"Q.	c #2C3335",
"R.	c #543117",
"S.	c #35291B",
"T.	c #2D2924",
"U.	c #34291B",
"V.	c #342615",
"W.	c #322514",
"X.	c #312414",
"Y.	c #2D2113",
"Z.	c #583318",
"`.	c #392B1A",
" +	c #372919",
".+	c #563218",
"++	c #563116",
"@+	c #7D6D5C",
"#+	c #796958",
"$+	c #493A28",
"%+	c #483927",
"&+	c #786858",
"*+	c #7A6959",
"=+	c #55351F",
"-+	c #897B6A",
";+	c #837665",
">+	c #3A2F22",
",+	c #3F301E",
"'+	c #392E21",
")+	c #837565",
"!+	c #867867",
"~+	c #573823",
"{+	c #7F7263",
"]+	c #7A6D5E",
"^+	c #382D21",
"/+	c #372D20",
"(+	c #796D5E",
"_+	c #7C6F60",
":+	c #553621",
"<+	c #7B6F60",
"[+	c #766A5C",
"}+	c #382D20",
"|+	c #372D1F",
"1+	c #766A5B",
"2+	c #796C5D",
"3+	c #553521",
"4+	c #362917",
"5+	c #40311F",
"6+	c #382D1F",
"7+	c #756A5B",
"8+	c #695E4F",
"9+	c #655A4C",
"0+	c #362B1D",
"a+	c #372D21",
"b+	c #313331",
"c+	c #313231",
"d+	c #303231",
"e+	c #323331",
"f+	c #2F3130",
"g+	c #352A1C",
"h+	c #655A4B",
"i+	c #675B4C",
"j+	c #53321C",
"k+	c #6D6254",
"l+	c #615647",
"m+	c #6B5F51",
"n+	c #53331D",
"o+	c #6E6355",
"p+	c #594E40",
"q+	c #34281A",
"r+	c #2D3334",
"s+	c #35291C",
"t+	c #615648",
"u+	c #6D6153",
"v+	c #53331E",
"w+	c #5C5143",
"x+	c #564B3D",
"y+	c #33281A",
"z+	c #352819",
"A+	c #2D261C",
"B+	c #2D251C",
"C+	c #695E50",
"D+	c #665A4A",
"E+	c #52311B",
"F+	c #5A4F41",
"G+	c #5E5445",
"H+	c #332615",
"I+	c #322615",
"J+	c #362B1E",
"K+	c #6A5F52",
"L+	c #5D5041",
"M+	c #512F18",
"N+	c #6A5F51",
"O+	c #382917",
"P+	c #382A17",
"Q+	c #312415",
"R+	c #695E51",
"S+	c #5A4E40",
"T+	c #706557",
"U+	c #6C6153",
"V+	c #372C1F",
"W+	c #352918",
"X+	c #584D3F",
"Y+	c #594D3F",
"Z+	c #342718",
"`+	c #554A3D",
" @	c #695D4F",
".@	c #3E3529",
"+@	c #3C2D1C",
"@@	c #3F311E",
"#@	c #302416",
"$@	c #3A2F23",
"%@	c #6B6153",
"&@	c #352B1E",
"*@	c #33281B",
"=@	c #605445",
"-@	c #615546",
";@	c #37291B",
">@	c #392917",
",@	c #382817",
"'@	c #322415",
")@	c #3A2A17",
"!@	c #392916",
"~@	c #342515",
"{@	c #372716",
"]@	c #332515",
"^@	c #3A2917",
"/@	c #3B2A18",
"(@	c #3A2A18",
"_@	c #3B2A17",
":@	c #3C2A17",
"<@	c #554839",
"[@	c #52301A",
"}@	c #4E2B11",
"|@	c #4E2A10",
"1@	c #4F2B11",
"2@	c #4F2A10",
"3@	c #502E17",
"4@	c #502B11",
"  . . . . . . . . . . . . . . . . . . . . . . . . . . . . . . . . . . . . . . . . . . . . . . . . . . . . . . . . . . . . . + @ ",
". # $ $ $ $ $ $ $ $ $ $ $ $ $ $ $ $ $ $ $ $ $ $ $ $ $ $ $ $ $ $ $ $ $ $ $ $ $ $ $ $ $ $ $ $ $ $ $ $ $ $ $ $ $ $ $ $ $ $ $ % & @ ",
". $ * * * * * * * * * * * * * * * * * * * * * * * * * * * * * * * * * * * * * * * * * * * * * * * * * * * * * * * * * * * $ & @ ",
". = - - - - - - - - - - - - - - - - - - - - - - - - - - - - - - - - - - - - - - - - - - - - - - - - - - - - - - - - - - - = & @ ",
"; > , ' ' ' ' ' ' ' ' ' ' ' ' ' ' ' ' ' ' ' ' ' ' ' ' ' ' ' ' ' ' ' ' ' ' ' ' ' ' ' ' ' ' ' ' ' ' ' ' ' ' ' ' ' ' ' ' ' , ) ! @ ",
"~ { ] ^ / / / / / / / / / / / / / / / / / / / / / / / / / / / / / / / / / / / / / / / / / / / / / / / / / / / / / / / ^ ] { ( _ ",
": < [ } | | | 1 1 1 1 1 1 1 1 1 1 1 1 1 1 1 1 1 1 1 1 2 3 3 2 1 2 3 3 2 1 1 1 1 1 1 1 1 1 1 1 1 1 1 1 1 1 1 1 1 | | | 4 5 6 : 7 ",
"7 8 9 0 a a b c c c c c c c c c c c c c c c c d e e 1 f a a g c g a a h 1 e e d c c c c c c c c c c c c c c c c i a a j k l 7 7 ",
"7 @ ~ 0 a a m c c c c c c c c c c c c d 2 2 1 f a a n f a a n c g a a h n a a f 1 2 2 d c c c c c c c c c c c c m a a j o : 7 7 ",
"7 @ 9 p q a r c c c c c c c c d 2 2 1 3 a a n f a a n f a a n c g a a h n a a f n a a 3 1 2 2 d c c c c c c c c r a s t 9 u 7 7 ",
"7 v 9 w x y z 1 c c c c 2 2 1 3 a a A 3 a a A f a a n f a a n c g a a h n a a f n a a 3 A a a 3 1 2 2 c c c c 1 z y x B C D E 7 ",
"7 F 9 w x y z 1 c c c 2 a a G 3 a a A 3 a a A f a a n f a a g c g a a f n a a f n a a 3 A a a 3 A a a | c c c 1 z y x B C H I 7 ",
"7 J 9 w x K L M | | 2 | a a G 3 a a A 3 a a A f a a n g N N O P A N N n n a a f n a a 3 A a a 3 G a a | 2 | | 1 z K x B C H Q 7 ",
"7 R 9 w , , / | a a i | a a G 3 a a A 3 a a n S N N b T , , U V W , , T b N N g n a a 3 A a a 3 G a a | i a a | L , , B X Y Z 7 ",
"7 ` 9 w , , / | a a i | a a G 3 a a A  .N N m .., , t j , , U V +., , 0 t , , @.m N N  .A a a 3 G a a | i a a | L , , B #.$.%.7 ",
"7 @ 9 w , , / | a a i | a a G &.N *.r } , , =.K , , t j , , U V +., , 0 t , , K p , , ....*.N f A a a | i a a | L , , B #.-.7 7 ",
"7 @ 9 w , , / | a a i 3 N *.;.b , , z >., , =.K , , t j , , U V +., , 0 t , , K p , , >.z , , } r *.N 3 i a a | L , , B #.: 7 7 ",
"7 @ 9 w , , / 3 N *.;.g , , ,.N , , z >., , =.K , , t j , , U V +., , 0 t , , K p , , >.z , , *.,., , '.;.*.N 3 L , , B #.: 7 7 ",
"7 @ 9 w , , /  ., , z O , , ,.N , , z >., , =.K , , t j , , U V +., , 0 t , , K p , , >.z , , *.,., , O z , ,  .L , , B #.: 7 7 ",
"7 @ 9 w , , /  ., , ^ N , , ,.*., , ,.*., , p )., , t j , ' W V W ' , j t , , ).p , , >.!., , *.,., , N / , ,  .L , , B #.~.7 7 ",
"7 @ 9 w , , /  ., , ^ N , , z r {.].^./.].].(./.].]._.:.].].<.[.}.].].:._.].].|.(.].]./.^.].{.r z , , N / , ,  .L , , B C $.7 7 ",
"7 v 9 w , , /  ., , ^ N , , 1.2.3.4.4.4.4.4.4.4.4.4.4.4.4.4.4.4.4.4.4.4.4.4.4.4.4.4.4.4.4.4.3.2.1., , N / , ,  .L , , B C 5.7 7 ",
"7 J 9 w , , /  ., , ^ N , , 1.2.6.4.4.4.4.4.4.4.4.4.4.4.4.4.4.4.4.4.4.4.4.4.4.4.4.4.4.4.4.7.3.2.1., , N / , ,  .L , , B C 5.7 7 ",
"7 J 9 w , , /  ., , ^ N , , 1.2.8.9.9.9.9.9.9.9.9.9.9.9.9.9.9.0.9.9.9.9.9.9.9.9.9.9.9.9.9.9.a.2.1., , N / , ,  .L , , B C $.7 7 ",
"7 J 9 w , , /  ., , ^ N , , 1.3 b.c.2.d.c.c.e.d.c.c.e e c.c.e f.e c.c.e e c.c.g.e.c.c.d.2.c.i 3 1., , N / , ,  .L , , B #.~.7 7 ",
"7 v 9 w , , /  ., , ^ N , , 1.3 a a A 3 a a A f a a n f a a g c g a a h n a a f n a a 3 A a a 3 1., , N / , ,  .L , , B #.: 7 7 ",
"7 @ 9 w , , /  ., , ^ N , , 1. .0 0 ;.S 0 0 ..g 0 0 } h.0 0 b i.j.0 0 h.} 0 0 g ..0 0 g r 0 0  .1., , N / , ,  .L , , B #.: 7 7 ",
"7 @ 9 w , , /  ., , ^ N , , 1.k., , 1..., , l.T , , m.n., , K f K , , n.K , , T l., , r 1., , h.1., , N / , ,  .L , , B #.: 7 7 ",
"7 @ 9 w , , /  ., , ^ N , , =..., , z >., , =.K , , t 0 , , o.a o., , 0 t , , j =., , >.z , , ..=., , N / , ,  .L , , B #.: 7 7 ",
"7 @ 9 w , , /  ., , ^ N , , ,.*., , z >., , =.K , , t j , , o.a o., , 0 t , , K p , , >.z , , *.,., , N / , ,  .L , , B #.: 7 7 ",
"7 @ 9 w , , /  ., , ^ N , , ,.N , , z >., , =.K , , t j , , o.a o., , 0 t , , K p , , >.z , , *.,., , N / , ,  .L , , B #.p.7 7 ",
"7 q.9 w , , /  ., , x N , , ,.N , , z >., , =.K , , t j , , K h K , , 0 t , , K p , , >.z , , ..=., , N / , ,  .L , , B C $.r.7 ",
"7 s.9 w , , / t.0 l.j N , , ,.N , , z >., , =.K , , t j , , +.V T , , 0 t , , K p , , >.z , , ..=., , N / , ,  .L , , B C u.v.7 ",
"7 J 9 w , , / t.l.o.j N , , ,.N , , z >., , =.K , , t j , , U V +., , 0 t , , K p , , >.z , , *.,., , N / , ,  .L , , B C w.Z 7 ",
"7 R 9 w , , /  ., , x N , , ,.N , , z >., , =.K , , t j , , U V +., , 0 t , , K p , , >.z , , *.,., , N / , ,  .L , , B X x.Z 7 ",
"7 F 9 w , , /  ., , ^ N , , ,.*., y.z.A.y.y.p ).y.y.B.).y.' W C.W ' y.).D.y.y.).p y.y.>.E.y., *.,., , N / , ,  .L , , B X D I 7 ",
"7 q.9 w , , /  ., , ^ N , , =.A F.G.H.I.G.G.J.I.G.G.J.K.G.G.L.M.N.G.G.O.J.G.G.K.J.G.G.I.H.G.F.A =., , N / , ,  .L , , B #.P.r.7 ",
"7 @ 9 w , , /  ., , ^ N , , 1.2.3.Q.4.4.4.4.4.4.4.4.4.4.4.4.4.4.4.4.4.4.4.4.4.4.4.4.4.4.4.Q.3.2.1., , N / , ,  .L , , B #.R.7 7 ",
"7 @ 9 w , , /  ., , ^ N , , 1.2.6.4.4.4.4.4.4.4.4.4.4.4.4.4.4.4.4.4.4.4.4.4.4.4.4.4.4.4.4.7.3.2.1., , N / , ,  .L , , B #.: 7 7 ",
"7 @ 9 w , , /  ., , ^ N , , 1.3 S.T.T.T.T.T.T.T.T.T.T.T.T.T.T.T.T.T.T.T.T.T.T.T.T.T.T.T.T.T.U.3 1., , N / , ,  .L , , B #.: 7 7 ",
"7 @ 9 w , , /  ., , ^ N , , 1.3 b.V.W.e V.V.c.e V.V.X.2.V.V.X.Y.2.V.V.2.X.V.V.e.c.V.V.e W.V.b.3 1., , N / , ,  .L , , B #.: 7 7 ",
"7 @ 9 w , , /  ., , ^ N , , 1.3 a a A 3 a a A f a a n f a a n c g a a h n a a f n a a 3 A a a 3 1., , N / , ,  .L , , B C Z.7 7 ",
"7 v 9 w , , /  ., , ^ N , , 1.g =.z `.'.z z W h.z z  +j.z z ..i...z z 4 @.z z h.T z z k.U z =.g 1., , N / , ,  .L , , B C 5.7 7 ",
"7 F 9 w , , /  ., , ^ N , , 1.k., , =.W , , t N , , l.`., , l.n j , , K l., , N o., , W 1., , h.1., , N / , ,  .L , , B C 5.7 7 ",
"7 J 9 w , , /  ., , ^ N , , z ;., , z >., , =.K , , t 0 , , o.a o., , 0 t , , j =., , >.z , , s z , , N / , ,  .L , , B C 5.7 7 ",
"7 R 9 w , , /  ., , ^ N , , ,.*., , z >., , =.K , , t j , , o.a o., , 0 t , , K p , , >.z , , *.,., , N / , ,  .L , , B X .+7 7 ",
"7 ++9 w x j L  ., , ^ N , , ,.N , , z >., , =.K , , t j , , o.a o., , 0 t , , K p , , >.z , , *.,., , N / , ,  .z 0 x B #.@ 7 7 ",
"@+#+$+, x q z  ., , ^ N , , ,.N , , z >., , =.K , , t j , , o.a o., , 0 t , , K p , , >.z , , *.,., , N / , ,  .z y x , %+&+*+=+",
"-+;+>+x x y z  ., , ^ N , , ,.N , , z >., , =.K , , t j , , o.a o., , 0 t , , K p , , >.z , , *.,., , N / , ,  .z y x ,+'+)+!+~+",
"{+]+^+N N s z  ., , ^ N , , ,.N , , z >., , =.K , , t j , , o.a o., , 0 t , , K p , , >.z , , *.,., , N / , ,  .z q N N /+(+_+:+",
"<+[+}+z z q z  ., , ^ N , , ,.N , , z >., , =.K , , t j , , o.a o., , 0 t , , K p , , >.z , , *.,., , N / , ,  .z y =.z |+1+2+3+",
"<+[+}+,+x y z  ., , ^ N , , ,.N , , z K , , =.K , , 1.l., , o.4+o.5+, l.1., , K =., , K z , , N ,., , N / , ,  .z y x ,+6+7+2+3+",
"8+9+0+,+x N z  ., , ^ N , , 1.h a+b+c+d+e+e+c+d+e+e+c+d+e+e+d+f+d+e+e+d+d+e+e+d+c+e+e+d+c+b+a+h 1., , N / , ,  .z N x ,+g+h+i+j+",
"k+l+g+,+, x /  ., , ^ N , , 1.2.3.4.4.4.4.4.4.4.4.4.4.4.4.4.4.4.4.4.4.4.4.4.4.4.4.4.4.4.4.4.3.2.1., , N / , ,  .L x , ,+U.l+m+n+",
"o+p+q+,+, , /  ., , ^ N , , 1.2.6.4.r+r+r+r+r+r+r+r+r+r+r+r+r+r+r+r+r+r+r+r+r+r+r+r+r+r+r+4.3.2.1., , N / , ,  .L , , ,+s+t+u+v+",
"w+x+y+,+, , /  ., , ^ N , , 1.3 z+A+A+B+A+A+A+B+A+A+B+B+A+A+B+B+B+A+A+B+B+A+A+B+A+A+A+B+A+A+z+3 1., , N / , ,  .L , , ,+0+C+D+E+",
"F+G+g+,+, , /  ., , ^ N , , 1.3 a b.n 3 b.b.H+3 b.b.h f b.b.h c h b.b.f h b.b.3 I+b.b.3 n b.a 3 1., , N / , ,  .L , , ,+J+K+L+M+",
"k+N+J+,+, , /  ., , ^ N , , 1.3 a O+A 3 O+O+A f O+O+n h O+P+n c n P+P+h n O+O+f A O+O+Q+A O+a 3 1., , N / , ,  .L , , ,+J+R+S+M+",
"T+U+V+,+, , /  ., , ^ N , , 1.'.x x m.h.x x o.N x x U W+x x T i.T x x ..W x x N o.x x h.m.x x '.1., , N / , ,  .L , , ,+q+X+Y+M+",
"T+N+J+,+, , /  ., , ^ N , , 1.k., , l.O , , =.K , , o.K , , U V +., , K o., , K p , , Z+l., , h.1., , N / , ,  .L , , ,+y+`+ @n+",
"k+.@t.x , , z  .x , ,.q ,+, +@'., , l.O , , =.K , , t j , , U c +., , 0 t , , K p , , Z+m., , k.l., @@N ,., x  .z , , x #@$@ @v+",
"%@&@1 r s s a | s s 4+3 s s m 3 s s b O , , t K , , o.j , , l.b.0 , , j o., , K t , , 4 b s s 3 b s s f 4+s s | 4+s s s 1 *@=@E+",
"-@;@X.O+>@>@,@'@>@)@!@~@>@>@{@]@>@^@^@^@/@/@/@>@(@(@)@>@/@/@_@_@:@/@(@>@^@(@(@^@_@/@/@^@>@>@>@]@{@^@^@]@!@_@)@'@,@>@>@>@X.Z+<@M+",
"[@}@|@}@}@}@}@|@}@1@1@2@}@}@}@|@}@}@}@}@}@1@}@}@}@}@}@}@}@}@1@1@1@}@}@}@}@}@}@}@}@}@1@}@}@}@}@|@}@}@}@|@1@1@1@|@}@}@}@}@|@}@3@4@"};
