/* XPM */
static char * player_xpm[] = {
"64 64 91 1",
" 	c #502B10",
".	c #542D11",
"+	c #562E11",
"@	c #552E11",
"#	c #512B10",
"$	c #512C10",
"%	c #582F11",
"&	c #5A3012",
"*	c #522C10",
"=	c #532C11",
"-	c #5F3313",
";	c #5D3213",
">	c #552D11",
",	c #572F11",
"'	c #643513",
")	c #673714",
"!	c #603313",
"~	c #5E3313",
"{	c #5B3112",
"]	c #663714",
"^	c #613413",
"/	c #582F12",
"(	c #5E3213",
"_	c #542D10",
":	c #532C10",
"<	c #5D3112",
"[	c #653614",
"}	c #592F11",
"|	c #5C3112",
"1	c #572E11",
"2	c #5F3212",
"3	c #5D3212",
"4	c #5B3012",
"5	c #5E3212",
"6	c #5A3011",
"7	c #5B3011",
"8	c #633513",
"9	c #5A2F11",
"0	c #5F3213",
"a	c #623413",
"b	c #623414",
"c	c #613313",
"d	c #633413",
"e	c #5A3112",
"f	c #633514",
"g	c #643514",
"h	c #633414",
"i	c #5C3012",
"j	c #DBDBE2",
"k	c #8A8A8F",
"l	c #4F2B10",
"m	c #562D11",
"n	c #532D11",
"o	c #B6B6B6",
"p	c #5D3113",
"q	c #532D10",
"r	c #653514",
"s	c #53535A",
"t	c #5F3312",
"u	c #623513",
"v	c #683714",
"w	c #663614",
"x	c #603312",
"y	c #582E11",
"z	c #653613",
"A	c #EFC193",
"B	c #301C19",
"C	c #5E3112",
"D	c #BC8356",
"E	c #633724",
"F	c #593012",
"G	c #4CB528",
"H	c #552D10",
"I	c #524238",
"J	c #AB9A6E",
"K	c #592F12",
"L	c #766A55",
"M	c #643614",
"N	c #8F4F34",
"O	c #C8BCB4",
"P	c #673D31",
"Q	c #8B6B1C",
"R	c #4B2F25",
"S	c #F1C146",
"T	c #5A440D",
"U	c #007DFF",
"V	c #34343A",
"W	c #7F7873",
"X	c #F1F1F1",
"Y	c #593011",
"Z	c #643613",
"                                                                ",
"                                                                ",
"         .+@#      $%&+       *++*       +&%$      #@+.         ",
"        =&-;>#    $,')!.#    $,~~,$    #.!)',$    #>;-&=        ",
"       *{~--;@    %'))]^.   #/(--(/#   .^]))'%    @;--~{*       ",
"       =;----&_  :<))))[}* #>|----|># *}[))))<:  :&----;=       ",
"      #@;----&: :12))))[}*#_%3----|>#*>4[))))<: :1|----;=       ",
"   #=.>}3---;@#.}}5[))]^.*+6}|---(/$*1}78]))'%#>}94(--~{*$=*    ",
"   .0a(963-;>#@;(49<[)!.*{bc49|-~,$={(|94d)',$,ca<}4(-e=$/;{=   ",
"  >(fgh066|6*+|--(465|+*{bggci9{jjjjjjjk9<3%*/!gga<94|1*/;-~&.  ",
" *&ggggb4}}%>{----3}+*l.^gggg<}jjjjjjjkk61: #;gggg!}}}1+;----%* ",
" ><ggggb6%}}}<----|1$  .^gggg<jjjjjjjkkjjj  #;gggg!%}}}6(----{> ",
" m<fgggc>+9}}<----&*## ncggghojjjjjjojjjjjj #<ggggpq%9}6(----{m ",
" +75fr!,${ac663--&n$/&+$,!rbsooojjjjjjjjjokk*>pggp.:ta2}4(--|6+ ",
" _1600/*%uvwx76|&n*,(!|@$&c5ssoooojjjjjjjjok,*+!!+:|[v'56{3|91_ ",
"  :1y_ @8)))]5}%:$1~---3.+9%_sooooojjjjjjjjk~1_}}_&w)))z7}}}y:  ",
"  #$$#:6[))))2}}y14----(}%}}%soookkAAAAjjjjk-&y}}y5))))[4}}y:   ",
"     :14[))))2}}}}{----;+1}}BkkAkkAAAAAAksjk-%>}}}2))))[4}1:    ",
"   $1|i6c[)]d|6<<663--;/*%C<BkkAkkDEEAAEksss&n><<6|d])[c6i|1#   ",
"  $+^gc46c[8465ff5663~F$.(gbBkBkkkAjEAAjss~|n*&ff5648[c64cg^+$  ",
"  1^gggc76i790fggf0}66+.0fggBBBBBAAjGAAjs}6%*4bggf097i67cggg^1  ",
" :|ggggh4}}}}!gggg(>%}1%bgggg<BBBDAAAAAAs1}%10gggg!}}}}4bgggg/  ",
" mCggggb%1}}}!gggg;$Hy}4hggggIIBDDDAAAA^.:1}}!gggg01%}}4bgggg/  ",
" m<bggf0.+66}0fggb4$.}67cgggIJJJDDEEggf0n*,790fggb4*%6}7cggg^1  ",
" m9|bg(.$F~3665ff&*.^[c64cgIJJJJAAI|bg(.*3[8465ff&*n|~|94cg^+$  ",
" *m9<&>$/;--367<K*@!])[c6iIJJJJJJAAI<&>*3[v]d|7<K=n&~-~|9i|1$   ",
"  *m>*#@;----{yH#*|))))[4IJJJJJJJJLI+BB1M))))2yH#*%----(61:     ",
"     #_9(----4H#*+2))))[LJJJJLJJJJJIBBBB[))))5H#$+{----(}:#$    ",
"    #>%6(---~1#*1%5]))IILLJJJILJJLIBBBBBz)))w&#*1}{----3.#q+$   ",
"   *{-<}4(-(,*n&|67xwvIJJJLJILLLIIBBBBBB5'v[|:>;!i9|--|@$+{{*   ",
"  =&bra<9{3{*n&--366cNDAJJJIOOBBBBBBBB(4}2^3:>pgg!i9|3%$@|-(,*  ",
" #Khggga7}}%:&----<}NAAAADIIOPBBBBB~---(6%>##<gggg!}}}+.3---~1# ",
" H<ggggb7}}}%|-QQQ3NAAAADRPPOOB}}%&----(9_# #;gggg!}}}%}(----4H ",
" mCggggb11}}}3-QSSNAAADDIILLLLLB}}{----;@#  #;gggg(>y}}6(----|+ ",
" +|cggb{*}2594(QSNAAADBBIILLLLLB5763--;/$n+@$/!gg!/*|2|9|~--37+ ",
" >%4cb{*.!)[<94(QNAAADBQQQLLIPPRBx663(/$=&-;>#%aa%$,')d49|(36%> ",
" #_}6+*.^]))[5}}.DAATTTSSQPPPPPPPBc99+**{~--;@.77.%'))]87}66}_# ",
"  $::#$}[))))2}%+DDTTQSSQQBRPPPPPPB}}1>1(----&1}}1<))))[4}}%_#  ",
"     *>4[))))2}}}}{TQUUQVBBBBRPPPPRB}}}6(----&1}}}2))))[4}yH#   ",
"   #n%978]))[5}779QQSUUkkV47BBRPPPPB74663---;@.77}5[))]876%.#   ",
"   .0b064d)[<9<aa<QSSQsokkVc46BBRPPBch0963-;>#%aa<9<[)d460b0.   ",
"  >(fgh06|256<aggBQSQVssokkV!4BPPPB!ggh066|6*/!gga<652|60hgf(>  ",
" *&ggggb4}}RRBBBBRQQQRVssokkV<BPPRBggggb%y}%>(gggg!}}}}4bgggg/  ",
" ><ggggb6%RPPRRRRRRRRRRVssokkVRPPB<gggg^.H%}}!gggg!%}}}4bgggf/  ",
" m<fgggc>+PPWRRRRRRRRBB7VssokkVPPB<fgggc.#>}}!ggggpq%}}7agggh/  ",
" +75fr!,$%PPWBBBBBBBB^29<VssokosPB65fr!,*F^!64!ggp>*{3{9<arb&=  ",
" _1600/$@|PPB9i!;>:|[v'56<Vssooos36600/*%8vwx7i!;>*,(-(4}<-{*   ",
"  :1y_#.3-PB-{}1*#&w)))z7%>Vssooos<}%_ @8)))]5}1*#1~---(6%>#    ",
"  #$$#:}(-B--{+$#H5))))[7_#$Vssooos%: :6[))))2+$#H4----(9_#     ",
"     :16(----%*#>y2))))M1 *+}VssooXk :14[))))|*#Hy{----;@#*H#   ",
"   $1|i9|~-~&n*146|d]v[3*>&<9PVssXXXk&66c[)]!@*K<763--;/$n%6*   ",
"  $+^gc49|~|n$,~-|948[3*.(gb|94VssXXXk366c[^.*&ff5663~F$=&-;>#  ",
"  1^gggc7}6%*/(---|}71*n0fggb<}6VssXXXk366}.$4bggf0}66+:{~--;@  ",
" :|ggggh4}}%1|----3%_#l.^gggg<}}}VssXXXk6>* #;gggg!}}}y,(----&q ",
" mCggggb%1}}}3----|># l.^gggg|1}}}VssXXk1*l #;gggg01%}}6(----|+ ",
" m<bggf0.1i79|---(/$*=$n0fgg^1.7794VssXXk*=*$4bggb4:6i663---(4m ",
" m9|bg(.*5[849|-~,$={;/$.(g^+$YZz5}4VVsXk/;{=*&ff&*>a[c663-(4}m ",
" *m9<&>*3[)]d|9&1*n&~-;/*%54*Fu))'294%VVk;-~&n><<>@!w)[c66{4}m* ",
"  *m>*#1M))))2}%_:%----;+1}y>!))))a9}>:+;----%m}}>|))))[i}y+m*  ",
"      :6[))))51y}}4----(}1%}}a))))a%y%}6(----&1y}}5))))[61>#    ",
"       @8)))w&#:y}{----3.#_}}a))))-**+}6(---~1#:y}5])))8@##     ",
"       $}8v[|n  :16|--|@# #_%<a))-+  *+}4(-(,*  :17xwv8}$       ",
"         &!3*    _++F&+    #>mY--+l   *m+%&/$    _m15!&         ",
"         ###         #        ###         #         ###         "};
