/* XPM */
static char * wall_xpm[] = {
"64 64 6 1",
" 	c #6B5424",
".	c #5B4820",
"+	c #45371A",
"@	c #332B19",
"#	c #292212",
"$	c #1C1F0A",
"                                 .                              ",
"                                 .           ......             ",
"..                 ...       ..++@....     ......++++.        ..",
"+++++.....     ...+++++....+++++@@+++++.........+++++++....+++++",
"+++++++++++@+@@@@@++++++++++++@@@@+++++++++@@@@@@@++++++++++++++",
"+++@+@+++++@+@@+@++++++++++++@@+@++++++++++@@@@#@#@##@@+++@+@+++",
"@@@@@@@@@@@@@@@+@+++++@@@@@@@@@+@+++++@@@@@@@#$$$$$##@@@@@@@@@@@",
"@@@@@####@@@@@@@@@@######@@@@@@@@@@########$$$$$###########@@@@@",
"@#############################################$################@",
"###############################@@@@###########$#################",
"######$$#####$$$$$$$#$#$######@@@@####$$#####$$$$$$$#$#$$$######",
"#####$$$$$$######$$$$$$$$$######@@@@@@@$$$$$$$$$$$$$$$$$$$$#####",
"####$$$$$####@@@#$$$$#$#$###@@@@@@@@@@@$$$$$$$$$$$$$$$$$$$$$####",
"####$$$$$#@@@#$$$$$$$#$#$###@@@@@@#$$$$$$$$$$$$$$$$$$$$$$$$$####",
"#$##$$$$$$$$$$$$$$$$$$$$$$$$$$$$#####$$$$$$$$$$$$$$$$$$$$$$$##$#",
"$$$$$$$$$$$$$$$$$$$$$$$$$$$$$$$#####$$$$$$$$$$$$$$$$$$$$$$$$$$$$",
"$$##$$$$$$$$$$$$$$$$$$$$$$$$$$$$$$$##$$$$$$$$$$$$$$$$$$$$$$$##$$",
"$$$$$$$$$$$$$$$$$$$$$$$$$$$$$$$$$$##$$$$$$$$$$$$$$$$$$$$$$$$$$$$",
"$$##$$$$$$$$$$$$$$$$$$$$$$$$$$$$$$$$$$$$$$$$$$$$$$$$$$$$$$$$##$$",
"#$$$$$$$$$$$$$$$$$$$$$$$$$$$$$$$$$$$$$$$$$$$$$$$$$$$$$$$$$$$$$$#",
"$$##$$$$$$$$$$$$$$$$$$$$$$$$$$$$$$$$$$$$$$$$$$$$$$$$$$$$$$$$##$$",
"#$$$$$$$$$$$$$$$$$$$$$$$$$$$$$$$$$$$$$$$$$$$$$$$$$$$$$$$$$$$$$$#",
"$$$$$$$$$$$$$$$$$$$$$$$$$$$$$$$$$$$$$$$$$$$$$$$$$$$$$$$$$$$$$$$$",
"$$$$$$$$$$$$$$$$$$$$$$$$$$$$$$$$$$$$$$$$$$$$$$$$$$$$$$$$$$$$$$$$",
"$$$$$$$$$$$$$$$$$$$$$$$$$$$$$$$$$$$$$$$$$$$$$$$$$$$$$$$$$$$$$$$$",
"$##$$$$$$$$$$$$$$$$$$$$$$$$$$$$$$$$$$$$$$$$$$$$$$$$$$$$$$$$$$##$",
"$#@$$$$$$$$$$$$$$$$$$$$$$$$$$$$$$$$$$$$$$$$$$$$$$$$$$$$$$$$$$@#$",
"$#@$$$$$$$$$$$$$$$$$$$$$$$$$$$$$$$$$$$$$$$$$$$$$$$$$$$$$$$$$$@#$",
"$#@#$$$$$$$$$$$$$$$$$$$$$$$$$$$$$$$$$$$$$$$$$$$$$$$$$$$$$$$$#@#$",
"###@$$$$$$$$$$$$$$$$$$$$$$$$$$$$$$$$$$$$$$$$$$$$$$$$$$$$$$$$@###",
"###@$$$$$$$$$$$$$$$$$$$$$$$$$$$$$$$$$$$$$$$$$$$$$$$$$$$$$$$$@###",
"#$#@$$$$$$$$$$$$$$$$$$$$$$$$$$$$$$$$$$$$$$$$$$$$$$$$$$$$$$$$@#$#",
"#$##$$$$$$$$$$$$$$$$$$$$$$$$$$$$$$$$$$$$$$$$$$$$$$$$$$$$$$$$##$#",
"#$$$$$$$$$$$$$$$$$$$$$$$$$$$$$$$$$$$$$$$$$$$$$$$$$$$$$$$$$$$$$$#",
"$$##$$$$$$$$$$$$$$$$$$$$$$$$$$$$$$$$$$$$$$$$$$$$$$$$$$$$$$$$##$$",
"#$$$$$$$$$$$$$$$$$$$$$$$$$$$$$$$$$$$$$$$$$$$$$$$$$$$$$$$$$$$$$$#",
"$$##$$$$$$$$$$$$$$$$$$$$$$$$$$$$$$$$$$$$$$$$$$$$$$$$$$$$$$$$##$$",
"#$$$$$$$$$$$$$$$$$$$$$$$$$$$$$$$$$$$$$$$$$$$$$$$$$$$$$$$$$$$$$$#",
"##$$$$$$$$$$$$$$$$$$$$$$$$$$$$$$$$$$$$$$$$$$$$$$$$$$$$$$$$$$$$##",
"$##$$$$$$$$$$$$$$$$$$$$$$$$$$$$$$$$$$$$$$$$$$$$$$$$$$$$$$$$$$##$",
"$$###$$$$$$$$$$$$$$$$$$$$$$$$$$$$$$$$$$$$$$$$$$$$$$$$$$$$$$###$$",
"@$$###$$$$$$$$$$$$$$$$$$$$$$$$$$$$$$$$$$$$$$$$$$$$$$$$$$$$###$$@",
"@$$#$#$$$$$$$$$$$$$$$$$$$$$$$$$$$$$$$$$$$$$$$$$$$$$$$$$$$$#$#$$@",
"$$$$$#$$$$$$$$$$$$$$$$$$$$$$$$$$$$$$$$$$$$$$$$$$$$$$$$$$$$#$$$$$",
"$$$$$#$$$$$$$$$$$$$$$$$$$$$$$$$$$$$$$$$$$$$$$$$$$$$$$$$$$$#$$$$$",
"#$$$$##$$$$$$$$$$$$$$$$$$$$$$$$$$$$$$$$$$$$$$$$$$$$$$$$$$##$$$$#",
"#$$$$$$$$$$$$$$$$$$$$$$$$$$$$$$$$$$$$$$$$$$$$$$$$$$$$$$$$$$$$$$#",
"#$$$$$$$$$$$$$$$$$$$$$$$$$$$$$$$$$$$$$$$$$$$$$$$$$$$$$$$$$$$$$$#",
"#$$$$$$$$$$$$$$$$$$$$$$$$$$$$$$$$$$$$$$$$$$$$$$$$$$$$$$$$$$$$$$#",
"#$$$$$$$$$$$$$$$$$$$$$$$$$$$$$$$$$$$$$$$$$$$$$$$$$$$$$$$$$$$$$$#",
"##$$$$$$$$$$$$$$$$$$$$$$$$$$#$$$$$$$$$$$$$$$$$$$$$$$$$$$$$$$$$##",
"###$$$$$$$$$$$$$$$$$$$$$$$$$#$$$$$#@$$$$$$$$$$$$$$#$$$$$$$$$$###",
"####$#$$$$$$$$$$$$$$$$$$$$$$###$$@@@$$$$$$$$$$$$###$$$$$$$#$####",
"####$#$$$$$$$$$$$$$$$$$$$$$$$$##@@$$$$$$$$$$$$$$$#$$$$$$$$#$####",
"###$$$$$$#@@@#$$$$$$$#$#$$$$$$$#@$$$$$$#$$$$$$$$$#$$$#$#$$$$$###",
"@@#@##$$$####@@@#$$$$#$#$$$$$$$@@#$$$$$#$$$$$$$$$#$$$#$#$$##@#@@",
"@@#@####$$$######$$$$$$$$$$##@@@##$$$$$$$$$$$$####$$$$$$####@#@@",
"++++#@#######$$$$$$$#$#$####@+#$$$$$$$#$####@@@@@$$$#$#$##@#++++",
"++++#@#####################@++##$$$$$$#####@@@@@##########@#++++",
"++@@@@#@###################@+####$$$#########+++++######@#@@@@++",
"+++@@@@@#@@@@@@@@@@######@@++@@@@@@#########+++++@@#####@@@@@+++",
".+++++@@@@@@@@@+@+++++@@@@+.@@@@@@@@@@@@@@@@@@+++++++@@@@@+++++.",
" .+++++++++@+@@+@+++++++++..+@@@@@@@+++++++++++++++++@++++++++. ",
"   .+++++++@+@@@@@+++++++..++@@++++++++++.+.....+.++++++++++.   "};
